<svg width="37" height="38" viewBox="0 0 37 38" fill="none" xmlns="http://www.w3.org/2000/svg">
<circle cx="18.5" cy="18.688" r="18.5" fill="white"/>
<path d="M24.6013 12.5145C23.1074 11.0129 21.1154 10.188 18.9943 10.188C14.6265 10.188 11.0684 13.7461 11.0646 18.1139C11.0646 19.5128 11.4296 20.8737 12.1214 22.0787L11 26.188L15.2043 25.0856C16.3637 25.7166 17.6676 26.0512 18.9943 26.0512H18.9981C23.3659 26.0512 26.9239 22.4931 26.9277 18.1215C26.9239 16.0041 26.099 14.0122 24.6013 12.5145ZM18.9943 24.7093C17.8083 24.7093 16.6488 24.39 15.6377 23.7893L15.3982 23.6449L12.9045 24.2987L13.5697 21.8659L13.4139 21.615C12.7524 20.5658 12.4065 19.3531 12.4065 18.1101C12.4065 14.4836 15.364 11.5261 18.9981 11.5261C20.7581 11.5261 22.4117 12.2142 23.6586 13.4572C24.9016 14.7041 25.5859 16.3577 25.5859 18.1177C25.5821 21.7556 22.6246 24.7093 18.9943 24.7093ZM22.6094 19.7751C22.4117 19.6763 21.4386 19.1973 21.2561 19.1289C21.0736 19.0642 20.9406 19.03 20.8113 19.2277C20.6783 19.4254 20.2982 19.8739 20.1841 20.0032C20.0701 20.1362 19.9522 20.1514 19.7546 20.0526C19.5569 19.9538 18.9183 19.7447 18.1618 19.068C17.5726 18.5434 17.1772 17.8934 17.0594 17.6957C16.9453 17.4981 17.048 17.3916 17.1468 17.2928C17.2342 17.2054 17.3445 17.0609 17.4433 16.9469C17.5422 16.8328 17.5764 16.7492 17.641 16.6161C17.7056 16.4831 17.6752 16.3691 17.6258 16.2702C17.5764 16.1714 17.181 15.1944 17.0138 14.7991C16.8541 14.4114 16.6907 14.4646 16.569 14.4608C16.455 14.4532 16.3219 14.4532 16.1889 14.4532C16.0558 14.4532 15.8429 14.5026 15.6605 14.7003C15.478 14.8979 14.9686 15.3769 14.9686 16.3539C14.9686 17.3308 15.6795 18.2697 15.7783 18.4028C15.8772 18.5358 17.1734 20.5354 19.1615 21.3945C19.6329 21.5998 20.0016 21.7214 20.2906 21.8126C20.7657 21.9647 21.1953 21.9419 21.5374 21.8925C21.9175 21.8354 22.7082 21.4135 22.8755 20.9497C23.0389 20.486 23.0389 20.0906 22.9895 20.007C22.9401 19.9233 22.8071 19.8739 22.6094 19.7751Z" fill="#FF0000"/>
</svg>
