<svg width="120" height="120" viewBox="0 0 120 120" fill="none" xmlns="http://www.w3.org/2000/svg">
<g clip-path="url(#clip0_23_16)">
<path d="M120 55.8713C120 57.1237 118.985 58.1391 117.732 58.1391H113.953V73.1332C113.953 80.7317 109.936 87.4073 103.917 91.157L108.452 99.5917C109.045 100.695 108.631 102.07 107.528 102.663C107.186 102.846 106.819 102.934 106.456 102.934C105.648 102.934 104.866 102.501 104.457 101.74L99.8287 93.131C97.6075 93.9219 95.219 94.3561 92.7296 94.3561H27.2704C25.1416 94.3561 23.0865 94.0375 21.1464 93.4519L16.6904 101.74C16.281 102.502 15.4987 102.934 14.6914 102.934C14.3285 102.934 13.9612 102.847 13.6193 102.663C12.5161 102.07 12.1028 100.695 12.6958 99.5917L16.9546 91.6706C10.4547 88.0389 6.04742 81.0923 6.04742 73.1326V58.1385H2.26771C1.01537 58.1385 0 57.1231 0 55.8708C0 54.6184 1.01537 53.6031 2.26771 53.6031H8.31514H111.685H117.732C118.985 53.6036 120 54.619 120 55.8713ZM2.26771 34.4772H26.6927C28.7246 34.4772 30.3777 36.1303 30.3777 38.1622V42.9811C30.3777 44.2334 31.3931 45.2488 32.6454 45.2488C33.8978 45.2488 34.9131 44.2334 34.9131 42.9811V38.1622C34.9131 33.6296 31.2253 29.9417 26.6927 29.9417H2.26771C1.01537 29.9417 0 30.9571 0 32.2095C0 33.4618 1.01537 34.4772 2.26771 34.4772ZM5.24409 27.5538H9.11791C10.3703 27.5538 11.3856 26.5385 11.3856 25.2861V19.3334C11.3856 18.081 10.3703 17.0657 9.11791 17.0657H5.24409C2.35219 17.0657 0 19.4179 0 22.3098C0 25.2017 2.35219 27.5538 5.24409 27.5538Z" fill="#1E1E1E"/>
</g>
<defs>
<clipPath id="clip0_23_16">
<rect width="120" height="120" fill="white"/>
</clipPath>
</defs>
</svg>
