<svg width="120" height="120" viewBox="0 0 120 120" fill="none" xmlns="http://www.w3.org/2000/svg">
<g clip-path="url(#clip0_23_10)">
<path d="M0 10.1074H116.221C116.68 10.1074 117.119 10.1953 117.52 10.3711C118.086 10.6152 119.15 11.6797 119.375 12.2363C119.541 12.6367 119.639 13.0762 119.639 13.5352V36.6992C119.639 37.1582 119.551 37.5977 119.375 38.0078C119.199 38.4277 118.945 38.7988 118.633 39.1211L118.594 39.1504C118.281 39.4531 117.92 39.6973 117.52 39.8633C117.119 40.0293 116.68 40.127 116.221 40.127H68.9258C68.7793 40.127 68.6719 40.0098 68.6719 39.873V14.1406H31.8164V20.8691L43.8184 34.5215C44.1602 34.9121 44.3164 35.4004 44.2871 35.8887C44.2578 36.3672 44.043 36.8359 43.6523 37.1875L43.6328 37.1973C43.457 37.3438 43.2715 37.4609 43.0664 37.5293C42.8613 37.6074 42.6367 37.6465 42.4219 37.6465H6.36719C5.84961 37.6465 5.37109 37.4316 5.03906 37.0898C4.69727 36.748 4.48242 36.2793 4.48242 35.7617C4.48242 35.4883 4.54102 35.2344 4.64844 35C4.75586 34.7559 4.91211 34.541 5.10742 34.3652L17.4609 20.8594V14.1406H0V10.1074ZM30.8105 67.3145C31.9238 67.3145 32.832 68.2227 32.832 69.3359C32.832 70.4492 31.9238 71.3574 30.8105 71.3574C29.6973 71.3574 28.7891 70.4492 28.7891 69.3359C28.7891 68.2227 29.6973 67.3145 30.8105 67.3145ZM17.9199 67.3145C19.0332 67.3145 19.9414 68.2227 19.9414 69.3359C19.9414 70.4492 19.0332 71.3574 17.9199 71.3574C16.8066 71.3574 15.8984 70.4492 15.8984 69.3359C15.8984 68.2227 16.8066 67.3145 17.9199 67.3145ZM31.8555 56.4648V58.6035V61.4355H116.592C118.467 61.4355 120.01 62.9785 120.01 64.8535V106.475C120.01 108.35 118.477 109.893 116.602 109.893C78.9062 109.893 41.2305 109.893 3.52539 109.893C1.66016 109.893 0.107422 108.34 0.107422 106.475V64.8535C0.107422 62.9688 1.64062 61.4355 3.52539 61.4355H16.8848C16.8848 59.7754 16.8848 58.125 16.8848 56.4648H21.3281V58.6035H19.2969V61.4355H29.4531V58.6035H27.4219V56.4648H31.8555ZM116.23 65.2051H87.3047V106.123H116.24V65.2051H116.23ZM83.5352 65.2051H45.6738V74.3164H83.5352V65.2051ZM41.9043 65.2051H3.86719V106.123H41.9043V65.2051ZM45.6738 106.113H83.5352V78.0859H45.6738V106.113ZM91.7969 67.3145C92.0703 67.3145 92.334 67.373 92.5684 67.4707L92.5781 67.4805C92.8223 67.5781 93.0371 67.7344 93.2227 67.9102C93.4082 68.0957 93.5547 68.3203 93.6621 68.5645C93.7598 68.7988 93.8184 69.0625 93.8184 69.3359C93.8184 69.6094 93.7598 69.8633 93.6621 70.1074C93.5547 70.3516 93.4082 70.5762 93.2227 70.7617L93.2031 70.7715C93.0176 70.9473 92.8027 71.0938 92.5586 71.1914C92.3242 71.2891 92.0605 71.3477 91.7871 71.3477C91.5137 71.3477 91.25 71.2891 91.0156 71.1914C90.7812 71.0938 90.5664 70.9473 90.3809 70.7715L90.3516 70.752C90.166 70.5664 90.0195 70.3418 89.9219 70.0977L89.9121 70.0879C89.8145 69.8535 89.7656 69.5996 89.7656 69.3262C89.7656 69.0527 89.8242 68.7891 89.9219 68.5547C90.0195 68.3105 90.1758 68.0859 90.3613 67.9004C90.5469 67.7148 90.7715 67.5684 91.0156 67.4609L91.0254 67.4512C91.2793 67.3633 91.5332 67.3145 91.7969 67.3145ZM72.5684 14.1406H72.4414V36.3379H115.889V14.1406H72.5684ZM76.2793 16.6113C76.4648 16.4355 76.6797 16.2891 76.9238 16.1914C77.1582 16.0938 77.4219 16.0352 77.6953 16.0352C77.9688 16.0352 78.2324 16.0938 78.4668 16.1914L78.4766 16.2012C78.7207 16.2988 78.9355 16.4551 79.1211 16.6309C79.3066 16.8164 79.4531 17.041 79.5605 17.2852C79.6582 17.5195 79.7168 17.7832 79.7168 18.0566C79.7168 18.3301 79.6582 18.5938 79.5605 18.8281L79.5508 18.8379C79.4531 19.0723 79.3066 19.2871 79.1309 19.4629L79.1016 19.4922C78.916 19.668 78.7012 19.8145 78.4668 19.9121C78.2324 20.0098 77.9688 20.0684 77.6953 20.0684C77.4219 20.0684 77.1582 20.0098 76.9238 19.9121C76.6797 19.8145 76.4551 19.6582 76.2695 19.4727C76.084 19.2871 75.9375 19.0625 75.8301 18.8184C75.7324 18.584 75.6738 18.3203 75.6738 18.0469C75.6738 17.7734 75.7324 17.5195 75.8301 17.2754C75.9375 17.0312 76.084 16.8066 76.2695 16.6211L76.2793 16.6113Z" fill="#1E1E1E"/>
</g>
<defs>
<clipPath id="clip0_23_10">
<rect width="120" height="120" fill="white"/>
</clipPath>
</defs>
</svg>
