<svg width="120" height="120" viewBox="0 0 120 120" fill="none" xmlns="http://www.w3.org/2000/svg">
<g clip-path="url(#clip0_25_22)">
<path d="M117.551 53.8776H73.4694V2.44898C73.4694 1.09665 72.373 0 71.0204 0H2.44898C1.09641 0 0 1.09665 0 2.44898V117.551C0 118.903 1.09641 120 2.44898 120H67.3469C68.6995 120 69.7959 118.903 69.7959 117.551V110.204H99.1837V117.551C99.1837 118.903 100.28 120 101.633 120H110.204C111.557 120 112.653 118.903 112.653 117.551V110.204H113.878C115.23 110.204 116.327 109.107 116.327 107.755V67.3469H117.551C118.904 67.3469 120 66.2503 120 64.898V56.3265C120 54.9742 118.904 53.8776 117.551 53.8776ZM34.2857 115.102H4.89796V94.2857H34.2857V115.102ZM34.2857 89.3878H4.89796V4.89796H34.2857V89.3878ZM56.3265 115.102H39.1837V4.89796H68.5714V53.8776H50.2041C48.8515 53.8776 47.7551 54.9742 47.7551 56.3265V64.898C47.7551 66.2503 48.8515 67.3469 50.2041 67.3469H52.6531V107.755C52.6531 109.107 53.7495 110.204 55.102 110.204H56.3265V115.102ZM64.898 115.102H61.2245V110.204H64.898V115.102ZM107.755 115.102H104.082V110.204H107.755V115.102ZM111.429 105.306H57.551V88.1633H111.429V105.306ZM111.429 83.2653H57.551V67.3469H111.429V83.2653ZM115.102 62.449H52.6531V58.7755H115.102V62.449Z" fill="#1E1E1E"/>
<path d="M88.1633 72.2449H80.8163V77.1428H88.1633V72.2449Z" fill="#1E1E1E"/>
<path d="M88.1633 93.0613H80.8163V97.9592H88.1633V93.0613Z" fill="#1E1E1E"/>
<path d="M48.9796 39.1837H44.0816V48.9796H48.9796V39.1837Z" fill="#1E1E1E"/>
<path d="M29.3878 39.1837H24.4898V48.9796H29.3878V39.1837Z" fill="#1E1E1E"/>
<path d="M23.2653 101.633H15.9184V106.531H23.2653V101.633Z" fill="#1E1E1E"/>
</g>
<defs>
<clipPath id="clip0_25_22">
<rect width="120" height="120" fill="white"/>
</clipPath>
</defs>
</svg>
