<svg width="120" height="120" viewBox="0 0 120 120" fill="none" xmlns="http://www.w3.org/2000/svg">
<path d="M47.334 52.0605C47.334 50.8398 48.3203 49.8535 49.541 49.8535C50.7617 49.8535 51.748 50.8398 51.748 52.0605V97.8027C51.748 103.906 49.248 109.453 45.2344 113.477C41.2109 117.5 35.6641 119.99 29.5605 119.99C23.457 119.99 17.9102 117.49 13.8867 113.477C9.87305 109.463 7.37305 103.916 7.37305 97.8125V22.1875C7.37305 16.084 9.87305 10.5371 13.8867 6.51367C17.9102 2.5 23.457 0 29.5605 0C33.5059 0 37.2266 1.05469 40.459 2.89062C43.7988 4.78516 46.6016 7.5293 48.584 10.8203C49.209 11.8652 48.8672 13.2227 47.8223 13.8477C46.7773 14.4727 45.4199 14.1309 44.7949 13.0859C43.2129 10.4492 40.957 8.25195 38.2715 6.72852C35.6934 5.26367 32.7148 4.43359 29.5508 4.43359C24.668 4.43359 20.2246 6.43555 17.002 9.6582C13.7793 12.8809 11.7773 17.3242 11.7773 22.207V97.832C11.7773 102.715 13.7793 107.158 17.002 110.381C20.2246 113.604 24.668 115.605 29.5508 115.605C34.4336 115.605 38.877 113.604 42.0996 110.381C45.3223 107.158 47.3242 102.715 47.3242 97.832V52.0605H47.334ZM35.6055 19.7949H99.8535C103.369 19.7949 106.553 21.2305 108.867 23.5449C111.182 25.8594 112.617 29.043 112.617 32.5586C112.617 36.0742 111.182 39.2578 108.867 41.5723C106.553 43.8867 103.369 45.3223 99.8535 45.3223H35.6055C32.0898 45.3223 28.9062 43.8867 26.5918 41.5723C24.2773 39.2578 22.8418 36.0742 22.8418 32.5586C22.8418 29.043 24.2773 25.8594 26.5918 23.5449C28.9062 21.2305 32.0996 19.7949 35.6055 19.7949ZM99.8535 24.2188H35.6055C33.3105 24.2188 31.2305 25.1562 29.7168 26.6699C28.2031 28.1836 27.2656 30.2637 27.2656 32.5586C27.2656 34.8535 28.2031 36.9336 29.7168 38.4473C31.2305 39.9609 33.3105 40.8984 35.6055 40.8984H99.8535C102.148 40.8984 104.229 39.9609 105.742 38.4473C107.256 36.9336 108.193 34.8535 108.193 32.5586C108.193 30.2637 107.256 28.1836 105.742 26.6699C104.229 25.1562 102.148 24.2188 99.8535 24.2188ZM31.9629 90.4102V98.9648C31.9629 100.186 30.9766 101.172 29.7559 101.172C28.5352 101.172 27.5488 100.186 27.5488 98.9648V90.3027C26.4062 89.9219 25.3809 89.2871 24.5508 88.457C23.1738 87.0801 22.3145 85.166 22.3145 83.0664C22.3145 80.957 23.1641 79.0527 24.5508 77.6758C25.9277 76.2988 27.8418 75.4395 29.9414 75.4395C32.0508 75.4395 33.9551 76.2891 35.332 77.6758C36.709 79.0527 37.5684 80.9668 37.5684 83.0664C37.5684 85.1758 36.7187 87.0801 35.332 88.457C34.4043 89.375 33.252 90.0586 31.9629 90.4102ZM32.1973 80.791C31.6211 80.2148 30.8203 79.8535 29.9316 79.8535C29.043 79.8535 28.2422 80.2148 27.666 80.791C27.0898 81.3672 26.7285 82.168 26.7285 83.0566C26.7285 83.9453 27.0898 84.7461 27.666 85.3223C28.2422 85.8984 29.043 86.2598 29.9316 86.2598C30.8203 86.2598 31.6211 85.8984 32.1973 85.3223C32.7734 84.7461 33.1348 83.9453 33.1348 83.0566C33.1445 82.1777 32.7832 81.377 32.1973 80.791Z" fill="black"/>
</svg>
