<svg width="37" height="38" viewBox="0 0 37 38" fill="none" xmlns="http://www.w3.org/2000/svg">
<circle cx="18.5" cy="18.688" r="18.5" fill="white"/>
<path d="M19.0007 10.188C16.8281 10.188 16.5554 10.1975 15.702 10.2364C14.8504 10.2754 14.269 10.4102 13.7604 10.608C13.2342 10.8124 12.7879 11.0857 12.3432 11.5305C11.8982 11.9752 11.6248 12.4215 11.4198 12.9475C11.2215 13.4564 11.0865 14.0379 11.0482 14.8892C11.01 15.7426 11 16.0154 11 18.1881C11 20.3608 11.0097 20.6326 11.0483 21.486C11.0875 22.3376 11.2223 22.919 11.42 23.4277C11.6245 23.9538 11.8978 24.4002 12.3427 24.8448C12.7872 25.2898 13.2335 25.5638 13.7594 25.7682C14.2684 25.966 14.8499 26.1009 15.7014 26.1399C16.5547 26.1787 16.8272 26.1882 18.9998 26.1882C21.1726 26.1882 21.4444 26.1787 22.2978 26.1399C23.1495 26.1009 23.7315 25.966 24.2405 25.7682C24.7665 25.5638 25.2121 25.2898 25.6567 24.8448C26.1017 24.4002 26.375 23.9538 26.58 23.4278C26.7767 22.919 26.9117 22.3375 26.9517 21.4861C26.99 20.6328 27 20.3608 27 18.1881C27 16.0154 26.99 15.7427 26.9517 14.8894C26.9117 14.0377 26.7767 13.4564 26.58 12.9477C26.375 12.4215 26.1017 11.9752 25.6567 11.5305C25.2116 11.0855 24.7666 10.8122 24.24 10.608C23.73 10.4102 23.1483 10.2754 22.2966 10.2364C21.4433 10.1975 21.1716 10.188 18.9982 10.188H19.0007ZM18.2831 11.6297C18.4961 11.6294 18.7337 11.6297 19.0007 11.6297C21.1368 11.6297 21.3899 11.6374 22.2335 11.6757C23.0135 11.7114 23.4368 11.8417 23.7188 11.9512C24.0921 12.0962 24.3583 12.2695 24.6381 12.5495C24.9181 12.8295 25.0915 13.0962 25.2368 13.4696C25.3463 13.7512 25.4768 14.1746 25.5123 14.9546C25.5507 15.7979 25.559 16.0512 25.559 18.1863C25.559 20.3213 25.5507 20.5746 25.5123 21.418C25.4767 22.198 25.3463 22.6213 25.2368 22.903C25.0918 23.2763 24.9181 23.5422 24.6381 23.822C24.3581 24.102 24.0923 24.2753 23.7188 24.4203C23.4371 24.5303 23.0135 24.6603 22.2335 24.696C21.3901 24.7343 21.1368 24.7427 19.0007 24.7427C16.8646 24.7427 16.6114 24.7343 15.768 24.696C14.988 24.66 14.5647 24.5297 14.2825 24.4202C13.9092 24.2752 13.6425 24.1018 13.3625 23.8218C13.0825 23.5418 12.9092 23.2758 12.7639 22.9023C12.6544 22.6206 12.5238 22.1973 12.4883 21.4173C12.45 20.574 12.4423 20.3206 12.4423 18.1843C12.4423 16.0479 12.45 15.7959 12.4883 14.9526C12.524 14.1726 12.6544 13.7492 12.7639 13.4672C12.9089 13.0939 13.0825 12.8272 13.3625 12.5472C13.6425 12.2672 13.9092 12.0939 14.2825 11.9485C14.5645 11.8385 14.988 11.7085 15.768 11.6727C16.5061 11.6394 16.7921 11.6294 18.2831 11.6277V11.6297ZM23.2711 12.958C22.7411 12.958 22.3111 13.3876 22.3111 13.9177C22.3111 14.4477 22.7411 14.8777 23.2711 14.8777C23.8011 14.8777 24.2311 14.4477 24.2311 13.9177C24.2311 13.3877 23.8011 12.9577 23.2711 12.9577V12.958ZM19.0007 14.0797C16.7319 14.0797 14.8924 15.9192 14.8924 18.1881C14.8924 20.457 16.7319 22.2956 19.0007 22.2956C21.2696 22.2956 23.1085 20.457 23.1085 18.1881C23.1085 15.9192 21.2694 14.0797 19.0006 14.0797H19.0007ZM19.0007 15.5214C20.4734 15.5214 21.6674 16.7153 21.6674 18.1881C21.6674 19.6608 20.4734 20.8548 19.0007 20.8548C17.5279 20.8548 16.3341 19.6608 16.3341 18.1881C16.3341 16.7153 17.5279 15.5214 19.0007 15.5214V15.5214Z" fill="#FF0000"/>
</svg>
