<svg width="190" height="29" viewBox="0 0 190 29" fill="none" xmlns="http://www.w3.org/2000/svg">
<g clip-path="url(#clip0_89_11)">
<path fill-rule="evenodd" clip-rule="evenodd" d="M153.919 29V0H190V29H182.782V7.90809H175.566V29H168.35V7.90809H161.135V29H153.919Z" fill="#DD2A1B"/>
<path fill-rule="evenodd" clip-rule="evenodd" d="M115.444 29V0H151.514V18.4596H122.66V21.0919H151.514V29H115.444Z" fill="#DD2A1B"/>
<path d="M144.307 7.90808H122.66V10.5487H144.307V7.90808Z" fill="#FEFEFE"/>
<path fill-rule="evenodd" clip-rule="evenodd" d="M76.961 29V10.5487H105.823V0H113.039V29H76.961Z" fill="#DD2A1B"/>
<path d="M105.823 18.4596H84.1766V21.0919H105.823V18.4596Z" fill="#FEFEFE"/>
<path fill-rule="evenodd" clip-rule="evenodd" d="M38.4833 29V10.5487H67.3402V7.90809H38.4833V0H74.5558V29H38.4833Z" fill="#DD2A1B"/>
<path d="M67.3374 18.4596H45.6989V21.0919H67.3374V18.4596Z" fill="#FEFEFE"/>
<path fill-rule="evenodd" clip-rule="evenodd" d="M0 29V0H36.078V7.90809H7.21561V29H0Z" fill="#DD2A1B"/>
</g>
<defs>
<clipPath id="clip0_89_11">
<rect width="190" height="29" fill="white"/>
</clipPath>
</defs>
</svg>
