<svg id="Capa_1" data-name="Capa 1" xmlns="http://www.w3.org/2000/svg" viewBox="0 0 153.5 18.64"><defs><style>.cls-1,.cls-3,.cls-5{fill:#e2000f;}.cls-1,.cls-4{fill-rule:evenodd;}.cls-2,.cls-4{fill:#fff;}.cls-3{stroke:#e2000f;stroke-miterlimit:22.93;stroke-width:0.2px;}</style></defs><polygon class="cls-1" points="130.96 18.64 130.96 0.41 153.5 0.41 153.5 18.64 148.99 18.64 148.99 5.38 144.49 5.38 144.49 18.64 139.98 18.64 139.98 5.38 135.47 5.38 135.47 18.64 130.96 18.64"/><polygon class="cls-1" points="106.91 18.64 106.91 0.41 129.45 0.41 129.45 12.01 111.42 12.01 111.42 13.67 129.45 13.67 129.45 18.64 106.91 18.64"/><rect class="cls-2" x="111.42" y="5.38" width="13.53" height="1.66"/><polygon class="cls-1" points="82.86 18.64 82.86 7.04 100.89 7.04 100.89 0.41 105.4 0.41 105.4 18.64 82.86 18.64"/><rect class="cls-2" x="87.37" y="12.01" width="13.53" height="1.66"/><polygon class="cls-1" points="58.81 18.64 58.81 7.04 76.84 7.04 76.84 5.38 58.81 5.38 58.81 0.41 81.35 0.41 81.35 18.64 58.81 18.64"/><rect class="cls-2" x="63.32" y="12.01" width="13.53" height="1.66"/><polygon class="cls-1" points="34.76 18.64 34.76 0.41 57.3 0.41 57.3 5.38 39.27 5.38 39.27 18.64 34.76 18.64"/><rect class="cls-3" x="0.1" y="0.1" width="28.16" height="18.42" rx="0.89"/><polygon class="cls-4" points="7.53 16.17 7.53 7.44 22.23 7.44 22.23 2.45 25.91 2.45 25.91 16.17 7.53 16.17"/><rect class="cls-5" x="11.2" y="11.18" width="11.03" height="1.25"/><polygon class="cls-4" points="2.45 16.17 2.45 2.45 20.83 2.45 20.83 6.19 6.13 6.19 6.13 16.17 2.45 16.17"/><polygon class="cls-1" points="130.96 18.64 130.96 0.41 153.5 0.41 153.5 18.64 148.99 18.64 148.99 5.38 144.49 5.38 144.49 18.64 139.98 18.64 139.98 5.38 135.47 5.38 135.47 18.64 130.96 18.64"/><polygon class="cls-1" points="106.91 18.64 106.91 0.41 129.45 0.41 129.45 12.01 111.42 12.01 111.42 13.67 129.45 13.67 129.45 18.64 106.91 18.64"/><rect class="cls-2" x="111.42" y="5.38" width="13.53" height="1.66"/><polygon class="cls-1" points="82.86 18.64 82.86 7.04 100.89 7.04 100.89 0.41 105.4 0.41 105.4 18.64 82.86 18.64"/><rect class="cls-2" x="87.37" y="12.01" width="13.53" height="1.66"/><polygon class="cls-1" points="58.81 18.64 58.81 7.04 76.84 7.04 76.84 5.38 58.81 5.38 58.81 0.41 81.35 0.41 81.35 18.64 58.81 18.64"/><rect class="cls-2" x="63.32" y="12.01" width="13.53" height="1.66"/><polygon class="cls-1" points="34.76 18.64 34.76 0.41 57.3 0.41 57.3 5.38 39.27 5.38 39.27 18.64 34.76 18.64"/></svg>