<svg width="182" height="29" viewBox="0 0 182 29" fill="none" xmlns="http://www.w3.org/2000/svg">
<path fill-rule="evenodd" clip-rule="evenodd" d="M148.105 27.9117V1.36469H180.62V27.9117H174.117V8.60585H167.614V27.9117H161.111V8.60585H154.608V27.9117H148.105Z" stroke="black" stroke-miterlimit="22.93"/>
<path fill-rule="evenodd" clip-rule="evenodd" d="M111.422 27.9117V1.36469H143.937V18.2588H117.925V20.6706H143.937V27.9117H111.422Z" stroke="black" stroke-miterlimit="22.93"/>
<path d="M137.434 8.60587H117.925V11.0176H137.434V8.60587Z" stroke="black" stroke-miterlimit="22.93"/>
<path fill-rule="evenodd" clip-rule="evenodd" d="M74.7452 27.9117V11.0176H100.752V1.36469H107.26V27.9117H74.7452Z" stroke="black" stroke-miterlimit="22.93"/>
<path d="M100.752 18.2588H81.2429V20.6706H100.752V18.2588Z" stroke="black" stroke-miterlimit="22.93"/>
<path fill-rule="evenodd" clip-rule="evenodd" d="M38.0626 27.9117V11.0176H64.0746V8.60585H38.0626V1.36469H70.5722V27.9117H38.0626Z" stroke="black" stroke-miterlimit="22.93"/>
<path d="M64.0746 18.2588H44.5656V20.6706H64.0746V18.2588Z" stroke="black" stroke-miterlimit="22.93"/>
<path fill-rule="evenodd" clip-rule="evenodd" d="M1.38 27.9117V1.36469H33.8949V8.60585H7.88299V27.9117H1.38Z" stroke="black" stroke-miterlimit="22.93"/>
</svg>
